<svg width="48" height="48" viewBox="0 0 48 48" fill="none" xmlns="http://www.w3.org/2000/svg">
<path d="M34.2148 12.5C35.9919 12.5 37.6271 12.7852 39.0928 13.3906C40.5315 13.9773 41.8031 14.7885 42.8916 15.8291C43.1828 16.1075 43.3503 16.4917 43.3555 16.8945C43.3606 17.2973 43.2029 17.685 42.9189 17.9707L39.8799 21.0283C39.5929 21.317 39.201 21.4768 38.7939 21.4707C38.3869 21.4646 38 21.2933 37.7217 20.9961C37.3333 20.5813 36.8543 20.2463 36.2637 19.9961L36.251 19.9912C35.7242 19.7624 35.0571 19.625 34.2148 19.625C33.5041 19.625 32.8786 19.7471 32.3223 19.9746C32.3161 19.9771 32.3099 19.98 32.3037 19.9824C31.7711 20.192 31.3186 20.493 30.9316 20.8896C30.5576 21.2927 30.2422 21.7958 29.9971 22.4219C29.7824 23.0185 29.6661 23.6966 29.666 24.4707C29.666 25.2675 29.7835 25.955 29.9971 26.5488L30.0928 26.7803C30.3201 27.2956 30.599 27.721 30.9219 28.0713L31.0732 28.2207C31.4347 28.5582 31.8517 28.8271 32.333 29.0293C32.8867 29.254 33.5086 29.375 34.2148 29.375C35.1026 29.375 35.8022 29.2357 36.3496 29.0039C36.9447 28.7518 37.4416 28.4111 37.8555 27.9844L37.9648 27.8828C38.2309 27.6582 38.5686 27.5323 38.9199 27.5293C39.3211 27.526 39.707 27.6836 39.9912 27.9668L43.0586 31.0244C43.3485 31.3134 43.5083 31.708 43.5 32.1172C43.4916 32.5264 43.3161 32.9145 43.0146 33.1914C41.8972 34.2178 40.6174 35.0221 39.1865 35.6064L39.1875 35.6074C37.7159 36.2167 36.0567 36.5 34.2432 36.5C32.5455 36.5 30.9387 36.2102 29.4375 35.6162C29.4292 35.6129 29.4203 35.6089 29.4121 35.6055C27.9472 34.9952 26.6478 34.1407 25.5254 33.0439C25.5219 33.0405 25.5181 33.0367 25.5146 33.0332C24.4296 31.9517 23.5804 30.6976 22.9678 29.2822C22.8494 31.4076 21.9867 33.2024 20.3389 34.5254L20.3291 34.5332C18.5898 35.9056 16.3003 36.5 13.6406 36.5C11.8059 36.5 10.1415 36.2058 8.69141 35.5635C8.68288 35.5597 8.67447 35.5557 8.66602 35.5518C7.26362 34.898 6.00461 33.9305 4.88477 32.6855C4.34898 32.0897 4.37602 31.1782 4.94629 30.6152L7.89844 27.7012L8.01367 27.5986C8.29316 27.3746 8.64546 27.2573 9.00684 27.2705C9.41992 27.2857 9.80884 27.4702 10.0811 27.7812C10.625 28.4032 11.2032 28.8662 11.8105 29.1943C12.3768 29.4726 13.0703 29.6347 13.9297 29.6348C14.7471 29.6348 15.1529 29.4825 15.3281 29.3662L15.3496 29.3525C15.3996 29.3205 15.4272 29.2948 15.4414 29.2803C15.4482 29.2733 15.4528 29.2686 15.4551 29.2656C15.4571 29.263 15.4587 29.2612 15.459 29.2607V29.2588C15.4593 29.2579 15.4607 29.255 15.4619 29.25C15.4643 29.2402 15.4688 29.2159 15.4688 29.1729C15.4687 28.9554 15.4151 28.9052 15.3896 28.8799C15.2081 28.6989 14.9168 28.4954 14.4639 28.2998C14.4584 28.2974 14.4527 28.2954 14.4473 28.293C13.9409 28.0667 13.3611 27.843 12.7051 27.625L12.6924 27.6211C11.981 27.378 11.2709 27.1053 10.5625 26.8027C10.5515 26.7981 10.5401 26.793 10.5293 26.7881C9.75358 26.4346 9.02924 26.0021 8.35938 25.4902C8.34467 25.479 8.33068 25.4669 8.31641 25.4551C7.59335 24.8587 7.01336 24.1295 6.57715 23.2842C6.57454 23.2791 6.57189 23.2736 6.56934 23.2686C6.08795 22.3089 5.88965 21.196 5.88965 20C5.88965 18.502 6.25081 17.1267 7.03516 15.9414C7.03921 15.9353 7.04371 15.9289 7.04785 15.9229C7.83426 14.7717 8.90997 13.9168 10.2236 13.3516V13.3506C11.529 12.7698 12.9875 12.5 14.5664 12.5C16.1722 12.5 17.6776 12.7817 19.0605 13.3691L19.0596 13.3701C20.4349 13.9461 21.6098 14.7501 22.5459 15.7998C23.0774 16.3961 23.048 17.3041 22.4795 17.8652L19.5273 20.7793C19.2429 21.0599 18.8585 21.2159 18.459 21.2119C18.0593 21.2079 17.6771 21.0443 17.3984 20.7578C16.8736 20.2184 16.3855 19.8636 15.9404 19.6484C15.935 19.6458 15.9292 19.6433 15.9238 19.6406C15.5429 19.4508 15.0733 19.337 14.4805 19.3369C13.8652 19.3369 13.5622 19.4592 13.4287 19.5479C13.4208 19.5531 13.4123 19.5574 13.4043 19.5625C13.4043 19.5641 13.4043 19.5657 13.4043 19.5674C13.4043 19.6565 13.4183 19.6953 13.4219 19.7041C13.4237 19.7085 13.4283 19.7166 13.4443 19.7334C13.6344 19.8959 13.9227 20.0771 14.3496 20.2539C14.8997 20.473 15.4999 20.6944 16.1514 20.917C16.8933 21.164 17.6243 21.4515 18.3438 21.7793C19.1468 22.1452 19.8844 22.6161 20.5518 23.1895H20.5508C21.1404 23.6683 21.6265 24.2457 22.0156 24.9062C22.011 24.7618 22.0059 24.6164 22.0059 24.4707C22.0059 22.9074 22.2747 21.4243 22.8232 20.0352L22.9365 19.7588C23.5513 18.2952 24.4138 17.0125 25.5254 15.9268C26.6326 14.8453 27.9261 14.0107 29.3906 13.4209V13.4199C30.8965 12.8019 32.51 12.5 34.2148 12.5Z" fill="white" stroke="#EE26C3" stroke-width="3" stroke-linejoin="round"/>
</svg>
